# xmcd
#
# Track frame offsets: 
#        150
#        1855
#        20067
#        58775
#        80382
#        126570
#        153580
#        194630
#        218765
#        253215
#
# Disc length: 4001 seconds
#
# Revision: 10
# Processed by: cddbd v1.5.2PL0 Copyright (c) Steve Scherf et al.
# Submitted via: ExactAudioCopy v1.0b3
#
DISCID=8f0f9f0a
DTITLE=Luther Allison - Live In Chicago (Disc-1)
DYEAR=1999
DGENRE=Blues
TTITLE0=Intro
TTITLE1=Soul Fixin' Man
TTITLE2=Cherry Red Wine
TTITLE3=Move From The Hood
TTITLE4=Bad Love
TTITLE5=Put Your Money Where Your Mouth Is
TTITLE6=Big City
TTITLE7=Give Me Back My Wig
TTITLE8=It Hurts Me Too
TTITLE9=Medley: Gambler's Blues - Sweet Little Angel
EXTD=YEAR: 1999
EXTT0=
EXTT1=
EXTT2=
EXTT3=
EXTT4=
EXTT5=
EXTT6=
EXTT7=
EXTT8=
EXTT9=
PLAYORDER=
